<svg width="48" height="49" viewBox="0 0 48 49" fill="none" xmlns="http://www.w3.org/2000/svg">
<path d="M36.0016 26.1298C33.8302 23.9585 30.6042 23.545 27.996 24.8266L17.9166 14.8232V9.00958L6.00067 0.0102539L0.000488281 5.92605L9.00076 17.842L14.8172 17.8428L24.8206 27.8368C23.539 30.445 23.9533 33.671 26.1247 35.8424L37.0938 46.8208C38.4644 48.1802 40.6761 48.1802 42.0355 46.8207L46.9809 41.8752C48.3404 40.5158 48.3404 38.3051 46.9808 36.9335L36.0016 26.1298Z" fill="#2E2640"/>
<path d="M21.3671 28.7923L15.8169 23.2515L1.85713 37.2113C-0.615136 39.6835 -0.615136 43.6877 1.85713 46.16C3.09091 47.3928 4.70815 48.0116 6.32913 48.0116C7.95012 48.0116 9.56736 47.3936 10.803 46.1572L21.969 34.9912C21.1421 33.0393 20.8702 30.8923 21.3671 28.7923ZM6.001 44.2615C4.75877 44.2615 3.75093 43.2536 3.75093 42.0114C3.75093 40.7682 4.75877 39.7613 6.001 39.7613C7.24322 39.7613 8.25107 40.7645 8.25107 42.0114C8.25107 43.2583 7.24322 44.2615 6.001 44.2615ZM47.5991 10.2573C47.4453 9.65451 46.8318 9.29075 46.2294 9.44451C46.0331 9.49468 45.8538 9.59667 45.7106 9.74002L38.7308 16.7246L32.3593 15.6633L31.298 9.28719L38.2779 2.3073C38.7183 1.86778 38.7192 1.15507 38.2798 0.714436C38.1331 0.567432 37.9487 0.463741 37.7467 0.415084C33.1444 -0.730575 28.362 0.620496 24.9307 3.97581C21.2077 7.69227 20.1764 13.0887 21.7327 17.7857L21.3483 18.1701L28.0001 24.8237C30.672 23.4981 33.8915 24.0221 36.0056 26.1269L36.7103 26.8276C39.4891 26.3852 42.057 25.0772 44.0436 23.084C47.4022 19.7264 48.6679 14.8606 47.5991 10.2573Z" fill="#FF4545"/>
</svg>
